<svg version="1.1" xmlns="http://www.w3.org/2000/svg" viewBox="-643.5210985604565 -917.3346195207527 1290.9757116785763 1668.326764588483" fill="none" stroke="black" stroke-width="0.6%" vector-effect="non-scaling-stroke">
    <path d="M 646.45461 -738.10877 L 646.45461 -706.01286 L 595.92148 -635.8351 L 589.66362 -637.14341" />
    <path d="M 646.45461 -738.10877 L -206.02627 -916.33462" />
    <path d="M -128.22714 143.04754 L -128.22714 -1.57058" />
    <path d="M -128.22714 -205.15056 L -128.22714 -696.48938" />
    <path d="M 608.27756 297.02657 L 608.27756 148.91456" />
    <path d="M 608.27756 -25.52487 L 608.27756 -193.44176" />
    <path d="M 608.27756 -367.88119 L 608.27756 -535.79808" />
    <path d="M 595.92148 -635.8351 L 595.92148 -667.931 L -256.5594 -846.15685 L -206.02627 -916.33462" />
    <path d="M 595.92148 -667.931 L 646.45461 -738.10877" />
    <path d="M -256.5594 -836.15795 L -256.5594 -846.15685" />
    <path d="M 557.74444 367.20434 L 557.74444 219.09233" />
    <path d="M 557.74444 44.6529 L 557.74444 -123.26399" />
    <path d="M 557.74444 -297.70342 L 557.74444 -465.62031" />
    <path d="M 522.2244 359.77826 L 557.74444 367.20434 L 608.27756 297.02657" />
    <path d="M 522.2244 359.77826 L 522.2244 268.42069" />
    <path d="M 522.2244 93.98126 L 522.2244 -73.93562" />
    <path d="M 522.2244 -248.37505 L 522.2244 -416.29194" />
    <path d="M -178.76027 213.22531 L -178.76027 -12.1354" />
    <path d="M -178.76027 -215.71539 L -178.76027 -707.0542" />
    <path d="M -214.2803 205.79923 L -178.76027 213.22531 L -128.22714 143.04754" />
    <path d="M -214.2803 205.79923 L -214.2803 -19.56148" />
    <path d="M -214.2803 -223.14146 L -214.2803 -714.48028" />
    <path d="M -272.26268 -726.6025 L -320.27603 -659.92408" />
    <path d="M -379.66145 -577.45271 L -606.48066 -262.45807 L -642.00069 -269.88415 L -642.00069 -152.19917 L -606.48066 -144.77309 L -606.48066 -262.45807" />
    <path d="M -307.78272 -734.02858 L -642.00069 -269.88415" />
    <path d="M -214.2803 -689.44041 L -293.60829 -579.27386" />
    <path d="M -379.66145 -459.76772 L -606.48066 -144.77309" />
    <path d="M 595.61576 -635.89901 L 589.66362 -627.63299" />
    <path d="M 538.82477 -557.03066 L 204.6068 -92.88623 L 169.08676 -100.31231 L 169.08676 17.37267 L 204.6068 24.79875 L 204.6068 -92.88623" />
    <path d="M 503.30474 -564.45674 L 169.08676 -100.31231" />
    <path d="M 645.6232 -587.66174 L 204.6068 24.79875" />
    <path d="M 645.6232 -587.66174 L 645.6232 -704.85824" />
    <path d="M 589.66362 -659.24041 L -262.81726 -837.46626" />
    <path d="M 589.66362 -659.24041 L 589.66362 -627.14451 L 539.13049 -556.96674 L 539.13049 -589.06265 L 589.66362 -659.24041 Z" />
    <path d="M 539.13049 -556.96674 L -313.35039 -735.19259 L -313.35039 -767.2885 L -262.81726 -837.46626" />
    <path d="M 539.13049 -589.06265 L -313.35039 -767.2885" />
    <path d="M 645.6232 -362.99041 L 425.80172 -57.71384" />
    <path d="M 374.96287 12.88849 L 369.01073 21.15451" />
    <path d="M 318.17188 91.75684 L 204.6068 249.47009 L 169.08676 242.04401 L 169.08676 359.72899 L 204.6068 367.15507 L 204.6068 249.47009" />
    <path d="M 610.10316 -370.41648 L 410.06334 -92.61164" />
    <path d="M 282.65185 84.33077 L 169.08676 242.04401" />
    <path d="M 645.6232 -362.99041 L 610.10316 -370.41648" />
    <path d="M 645.6232 -245.30542 L 204.6068 367.15507" />
    <path d="M 645.6232 -245.30542 L 645.6232 -362.99041" />
    <path d="M -214.2803 -464.76907 L -293.60829 -354.60252" />
    <path d="M -492.91557 -77.815 L -606.48066 79.89825 L -642.00069 72.47217 L -642.00069 190.15715 L -606.48066 197.58323 L -606.48066 79.89825" />
    <path d="M -214.2803 -521.52352 L -293.60829 -411.35697" />
    <path d="M -379.66145 -291.85083 L -401.02412 -262.18348" />
    <path d="M -528.43561 -85.24107 L -642.00069 72.47217" />
    <path d="M -214.2803 -347.08409 L -291.85038 -239.35883" />
    <path d="M -489.91555 35.70372 L -606.48066 197.58323" />
    <path d="M 425.80172 -89.32126 L 304.97176 -114.58285" />
    <path d="M 195.79802 -137.40751 L -426.67916 -267.54711" />
    <path d="M 425.80172 -89.32126 L 425.80172 -57.22536 L 375.26859 12.95241 L 375.26859 -19.1435 L 425.80172 -89.32126 Z" />
    <path d="M 375.26859 12.95241 L 369.01073 11.64409" />
    <path d="M 375.26859 -19.1435 L 254.43863 -44.40509" />
    <path d="M 169.08676 -62.24937 L -477.21229 -197.36935 L -426.67916 -267.54711" />
    <path d="M -477.21229 -187.37045 L -477.21229 -197.36935" />
    <path d="M 369.01073 -10.45291 L 248.18077 -35.7145" />
    <path d="M 169.08676 -52.25047 L -483.47015 -188.67876" />
    <path d="M 369.01073 -10.45291 L 369.01073 21.643 L 318.4776 91.82076 L 318.4776 59.72485 L 369.01073 -10.45291 Z" />
    <path d="M 318.4776 91.82076 L -534.00328 -86.40509 L -534.00328 -118.501 L -483.47015 -188.67876" />
    <path d="M 318.4776 59.72485 L -534.00328 -118.501" />
    <path d="M 645.6232 -20.63409 L 317.28391 435.34634" />
    <path d="M 266.44506 505.94867 L 260.49292 514.21469" />
    <path d="M 209.65407 584.81702 L 204.6068 591.82641 L 169.08676 584.40033 L 169.08676 702.08531 L 204.6068 709.51139 L 204.6068 591.82641" />
    <path d="M 610.10316 -28.06016 L 301.54552 400.44854" />
    <path d="M 174.13403 577.39095 L 169.08676 584.40033" />
    <path d="M 645.6232 -20.63409 L 610.10316 -28.06016" />
    <path d="M 645.6232 97.0509 L 204.6068 709.51139" />
    <path d="M 645.6232 97.0509 L 645.6232 -20.63409" />
    <path d="M -278.65026 -33.01913 L -293.60829 -12.2462" />
    <path d="M -379.66145 107.25993 L -403.86239 140.86892" />
    <path d="M -601.43339 415.24519 L -606.48066 422.25457 L -642.00069 414.82849 L -642.00069 532.51347 L -606.48066 539.93955 L -606.48066 422.25457" />
    <path d="M -379.66145 50.50548 L -403.86239 84.11447" />
    <path d="M -489.91555 203.62061 L -509.54193 230.8767" />
    <path d="M -636.95343 407.81911 L -642.00069 414.82849" />
    <path d="M -214.2803 -4.72777 L -293.60829 105.43878" />
    <path d="M -379.66145 224.94491 L -400.36819 253.70135" />
    <path d="M -527.77969 430.64376 L -606.48066 539.93955" />
    <path d="M 317.28391 403.73892 L -535.19698 225.51307" />
    <path d="M 317.28391 403.73892 L 317.28391 435.83482 L 266.75078 506.01259 L 266.75078 473.91668 L 317.28391 403.73892 Z" />
    <path d="M 266.75078 506.01259 L 260.49292 504.70427" />
    <path d="M 266.75078 473.91668 L -585.73011 295.69083 L -535.19698 225.51307" />
    <path d="M -585.73011 305.68973 L -585.73011 295.69083" />
    <path d="M 260.49292 482.60727 L -591.98797 304.38142" />
    <path d="M 260.49292 482.60727 L 260.49292 514.70318 L 209.95979 584.88094 L 209.95979 552.78504 L 260.49292 482.60727 Z" />
    <path d="M 209.95979 584.88094 L -642.5211 406.65509 L -642.5211 374.55919 L -591.98797 304.38142" />
    <path d="M 209.95979 552.78504 L -642.5211 374.55919" />
    <path d="M -403.86239 525.83535 L -403.86239 456.55082" />
    <path d="M -403.86239 252.97083 L -403.86239 -59.19689" />
    <path d="M -489.91555 588.58704 L -489.91555 438.55991" />
    <path d="M -489.91555 234.97993 L -489.91555 -53.33106 L -454.39552 -45.90498 L -439.46467 -66.64016" />
    <path d="M -474.98471 -74.06624 L -489.91555 -53.33106" />
    <path d="M -454.39552 596.01312 L -454.39552 445.98599" />
    <path d="M -454.39552 242.40601 L -454.39552 -45.90498" />
    <path d="M -489.91555 588.58704 L -454.39552 596.01312 L -403.86239 525.83535" />
    <path d="M 332.64232 679.81438 L 332.64232 531.70237" />
    <path d="M 332.64232 357.26294 L 332.64232 189.34605" />
    <path d="M 246.58915 742.56607 L 246.58915 651.2085" />
    <path d="M 246.58915 388.95896 L 246.58915 308.85218" />
    <path d="M 246.58915 134.41275 L 246.58915 100.64797 L 267.721 105.06595" />
    <path d="M 261.52 79.91279 L 246.58915 100.64797" />
    <path d="M 282.10919 749.99214 L 282.10919 601.88013" />
    <path d="M 282.10919 396.38503 L 282.10919 259.52382" />
    <path d="M 246.58915 742.56607 L 282.10919 749.99214 L 332.64232 679.81438" />
    <path d="M -293.60829 276.02135 L -293.60829 -36.14637" />
    <path d="M -293.60829 -239.72635 L -293.60829 -654.34873 L -329.12832 -661.77481 L -379.66145 -591.59704 L -344.14142 -584.17096 L -293.60829 -654.34873" />
    <path d="M -379.66145 258.03045 L -379.66145 -54.13727" />
    <path d="M -379.66145 -257.71725 L -379.66145 -591.59704" />
    <path d="M -344.14142 265.45653 L -344.14142 -46.71119" />
    <path d="M -344.14142 -250.29117 L -344.14142 -584.17096" />
    <path d="M 442.89641 526.69926 L 442.89641 378.58725" />
    <path d="M 442.89641 204.14782 L 442.89641 36.23093" />
    <path d="M 442.89641 -138.2085 L 442.89641 -306.12539" />
    <path d="M 442.89641 -480.56482 L 442.89641 -500.3697 L 407.37638 -507.79578 L 356.84325 -437.61801 L 392.36329 -430.19194 L 442.89641 -500.3697" />
    <path d="M 356.84325 589.45094 L 356.84325 498.09338" />
    <path d="M 356.84325 323.65395 L 356.84325 155.73706" />
    <path d="M 356.84325 -103.73822 L 356.84325 -186.61926" />
    <path d="M 356.84325 -361.05869 L 356.84325 -437.61801" />
    <path d="M 392.36329 596.87702 L 392.36329 448.76501" />
    <path d="M 392.36329 274.32558 L 392.36329 106.40869" />
    <path d="M 392.36329 -96.31215 L 392.36329 -235.94763" />
    <path d="M 392.36329 -410.38706 L 392.36329 -430.19194" />
    <path d="M 356.84325 589.45094 L 392.36329 596.87702 L 442.89641 526.69926" />
</svg>