<svg version="1.1" xmlns="http://www.w3.org/2000/svg" viewBox="-643.5210985604565 -917.3346195207527 1290.9757116785763 1668.326764588483" fill="none" stroke="black" stroke-width="0.6%" vector-effect="non-scaling-stroke">
    <path d="M 646.45461 -738.10877 L 646.45461 -706.01286 L 595.92148 -635.8351 L 589.66362 -637.14341" />
    <path d="M 646.45461 -738.10877 L -206.02627 -916.33462" />
    <path d="M -128.22714 143.04754 L -128.22714 -1.57058" />
    <path d="M -128.22714 -205.15056 L -128.22714 -515.0064" />
    <path d="M 608.27756 297.02657 L 608.27756 148.91456" />
    <path d="M 608.27756 -25.52487 L 608.27756 -193.44176" />
    <path d="M 608.27756 -367.88119 L 608.27756 -535.79808" />
    <path d="M 595.92148 -635.8351 L 595.92148 -667.931 L -256.5594 -846.15685 L -206.02627 -916.33462" />
    <path d="M 595.92148 -667.931 L 646.45461 -738.10877" />
    <path d="M -256.5594 -836.15795 L -256.5594 -846.15685" />
    <path d="M 557.74444 367.20434 L 557.74444 219.09233" />
    <path d="M 557.74444 44.6529 L 557.74444 -123.26399" />
    <path d="M 557.74444 -297.70342 L 557.74444 -465.62031" />
    <path d="M 522.2244 359.77826 L 557.74444 367.20434 L 608.27756 297.02657" />
    <path d="M 522.2244 359.77826 L 522.2244 268.42069" />
    <path d="M 522.2244 93.98126 L 522.2244 -73.93562" />
    <path d="M 522.2244 -248.37505 L 522.2244 -416.29194" />
    <path d="M -178.76027 213.22531 L -178.76027 -12.1354" />
    <path d="M -178.76027 -215.71539 L -178.76027 -525.57122" />
    <path d="M -214.2803 205.79923 L -178.76027 213.22531 L -128.22714 143.04754" />
    <path d="M -214.2803 205.79923 L -214.2803 -19.56148" />
    <path d="M -214.2803 -223.14146 L -214.2803 -532.9973" />
    <path d="M 476.08164 -501.50371 L 476.08164 -469.4078 L 425.54851 -399.23004 L -426.93237 -577.45589 L -426.93237 -609.55179 L -376.39924 -679.72956" />
    <path d="M 476.08164 -501.50371 L -376.39924 -679.72956" />
    <path d="M 425.54851 -399.23004 L 425.54851 -431.32594 L -426.93237 -609.55179" />
    <path d="M 425.54851 -431.32594 L 476.08164 -501.50371" />
    <path d="M 392.36329 596.87702 L 442.89641 526.69926 L 442.89641 378.58725" />
    <path d="M 442.89641 204.14782 L 442.89641 36.23093" />
    <path d="M 442.89641 -138.2085 L 442.89641 -306.12539" />
    <path d="M 392.36329 596.87702 L 392.36329 448.76501" />
    <path d="M 392.36329 274.32558 L 392.36329 106.40869" />
    <path d="M 392.36329 -96.31215 L 392.36329 -288.27881" />
    <path d="M 356.84325 589.45094 L 356.84325 498.09338" />
    <path d="M 356.84325 323.65395 L 356.84325 155.73706" />
    <path d="M 356.84325 -103.73822 L 356.84325 -413.59406" />
    <path d="M -293.60829 276.02135 L -293.60829 -36.14637" />
    <path d="M -293.60829 -239.72635 L -293.60829 -549.58218" />
    <path d="M -344.14142 265.45653 L -344.14142 -46.71119" />
    <path d="M -344.14142 -250.29117 L -344.14142 -560.14701" />
    <path d="M -379.66145 258.03045 L -379.66145 -54.13727" />
    <path d="M -379.66145 -257.71725 L -379.66145 -567.57308" />
    <path d="M 356.84325 589.45094 L 392.36329 596.87702" />
    <path d="M -385.84466 -568.86579 L -385.97246 -568.68832 L -421.49249 -576.1144 L -421.49249 -458.42941 L -385.97246 -451.00333 L -385.97246 -568.68832" />
    <path d="M -421.3647 -576.29187 L -421.49249 -576.1144" />
    <path d="M -379.66145 -459.76772 L -385.97246 -451.00333" />
    <path d="M 595.61576 -635.89901 L 589.66362 -627.63299" />
    <path d="M 538.82477 -557.03066 L 532.87263 -548.76464" />
    <path d="M 482.03378 -478.16231 L 476.08164 -469.89628" />
    <path d="M 425.24279 -399.29395 L 425.115 -399.11648 L 389.59496 -406.54256 L 389.59496 -288.85757 L 425.115 -281.4315 L 425.115 -399.11648" />
    <path d="M 389.72276 -406.72003 L 389.59496 -406.54256" />
    <path d="M 645.6232 -587.66174 L 425.115 -281.4315" />
    <path d="M 645.6232 -587.66174 L 645.6232 -704.85824" />
    <path d="M 532.87263 -580.37206 L -319.60825 -758.59791" />
    <path d="M 532.87263 -580.37206 L 532.87263 -548.27616 L 482.3395 -478.09839 L 482.3395 -510.1943 L 532.87263 -580.37206 Z" />
    <path d="M 482.3395 -478.09839 L 476.08164 -479.4067" />
    <path d="M 482.3395 -510.1943 L -370.14138 -688.42015 L -319.60825 -758.59791" />
    <path d="M -370.14138 -678.42124 L -370.14138 -688.42015" />
    <path d="M 589.66362 -659.24041 L -262.81726 -837.46626" />
    <path d="M 589.66362 -659.24041 L 589.66362 -627.14451 L 539.13049 -556.96674 L 539.13049 -589.06265 L 589.66362 -659.24041 Z" />
    <path d="M 539.13049 -556.96674 L 532.87263 -558.27506" />
    <path d="M 539.13049 -589.06265 L -313.35039 -767.2885 L -262.81726 -837.46626" />
    <path d="M -313.35039 -757.2896 L -313.35039 -767.2885" />
    <path d="M 645.6232 -362.99041 L 425.80172 -57.71384" />
    <path d="M 374.96287 12.88849 L 369.01073 21.15451" />
    <path d="M 318.17188 91.75684 L 314.8609 96.35496 L 279.34086 88.92889 L 279.34086 206.61387 L 314.8609 214.03995 L 314.8609 96.35496" />
    <path d="M 610.10316 -370.41648 L 410.06334 -92.61164" />
    <path d="M 282.65185 84.33077 L 279.34086 88.92889" />
    <path d="M 645.6232 -362.99041 L 610.10316 -370.41648" />
    <path d="M 645.6232 -245.30542 L 314.8609 214.03995" />
    <path d="M 645.6232 -245.30542 L 645.6232 -362.99041" />
    <path d="M -214.2803 -464.76907 L -293.60829 -354.60252" />
    <path d="M -492.91557 -77.815 L -496.22656 -73.21688 L -531.74659 -80.64295 L -531.74659 37.04203 L -496.22656 44.46811 L -496.22656 -73.21688" />
    <path d="M -214.2803 -521.52352 L -293.60829 -411.35697" />
    <path d="M -379.66145 -291.85083 L -401.02412 -262.18348" />
    <path d="M -528.43561 -85.24107 L -531.74659 -80.64295" />
    <path d="M -214.2803 -347.08409 L -291.85038 -239.35883" />
    <path d="M -489.91555 35.70372 L -496.22656 44.46811" />
    <path d="M 425.80172 -89.32126 L -426.67916 -267.54711" />
    <path d="M 425.80172 -89.32126 L 425.80172 -57.22536 L 375.26859 12.95241 L 375.26859 -19.1435 L 425.80172 -89.32126 Z" />
    <path d="M 375.26859 12.95241 L 369.01073 11.64409" />
    <path d="M 375.26859 -19.1435 L -477.21229 -197.36935 L -426.67916 -267.54711" />
    <path d="M -477.21229 -187.37045 L -477.21229 -197.36935" />
    <path d="M 369.01073 -10.45291 L -483.47015 -188.67876" />
    <path d="M 369.01073 -10.45291 L 369.01073 21.643 L 318.4776 91.82076 L 318.4776 59.72485 L 369.01073 -10.45291 Z" />
    <path d="M 318.4776 91.82076 L -534.00328 -86.40509 L -534.00328 -118.501 L -483.47015 -188.67876" />
    <path d="M 318.4776 59.72485 L -534.00328 -118.501" />
    <path d="M 645.6232 -20.63409 L 317.28391 435.34634" />
    <path d="M 266.44506 505.94867 L 260.49292 514.21469" />
    <path d="M 209.65407 584.81702 L 204.6068 591.82641 L 169.08676 584.40033 L 169.08676 702.08531 L 204.6068 709.51139 L 204.6068 591.82641" />
    <path d="M 610.10316 -28.06016 L 301.54552 400.44854" />
    <path d="M 174.13403 577.39095 L 169.08676 584.40033" />
    <path d="M 645.6232 -20.63409 L 610.10316 -28.06016" />
    <path d="M 645.6232 97.0509 L 204.6068 709.51139" />
    <path d="M 645.6232 97.0509 L 645.6232 -20.63409" />
    <path d="M -278.65026 -33.01913 L -293.60829 -12.2462" />
    <path d="M -379.66145 107.25993 L -403.86239 140.86892" />
    <path d="M -601.43339 415.24519 L -606.48066 422.25457 L -642.00069 414.82849 L -642.00069 532.51347 L -606.48066 539.93955 L -606.48066 422.25457" />
    <path d="M -379.66145 50.50548 L -403.86239 84.11447" />
    <path d="M -489.91555 203.62061 L -509.54193 230.8767" />
    <path d="M -636.95343 407.81911 L -642.00069 414.82849" />
    <path d="M -214.2803 -4.72777 L -293.60829 105.43878" />
    <path d="M -379.66145 224.94491 L -400.36819 253.70135" />
    <path d="M -527.77969 430.64376 L -606.48066 539.93955" />
    <path d="M 317.28391 403.73892 L -535.19698 225.51307" />
    <path d="M 317.28391 403.73892 L 317.28391 435.83482 L 266.75078 506.01259 L 266.75078 473.91668 L 317.28391 403.73892 Z" />
    <path d="M 266.75078 506.01259 L 260.49292 504.70427" />
    <path d="M 266.75078 473.91668 L -585.73011 295.69083 L -535.19698 225.51307" />
    <path d="M -585.73011 305.68973 L -585.73011 295.69083" />
    <path d="M 260.49292 482.60727 L -591.98797 304.38142" />
    <path d="M 260.49292 482.60727 L 260.49292 514.70318 L 209.95979 584.88094 L 209.95979 552.78504 L 260.49292 482.60727 Z" />
    <path d="M 209.95979 584.88094 L -642.5211 406.65509 L -642.5211 374.55919 L -591.98797 304.38142" />
    <path d="M 209.95979 552.78504 L -642.5211 374.55919" />
    <path d="M -403.86239 525.83535 L -403.86239 456.55082" />
    <path d="M -403.86239 252.97083 L -403.86239 -59.19689" />
    <path d="M -489.91555 588.58704 L -489.91555 438.55991" />
    <path d="M -489.91555 234.97993 L -489.91555 -53.33106 L -454.39552 -45.90498 L -439.46467 -66.64016" />
    <path d="M -474.98471 -74.06624 L -489.91555 -53.33106" />
    <path d="M -454.39552 596.01312 L -454.39552 445.98599" />
    <path d="M -454.39552 242.40601 L -454.39552 -45.90498" />
    <path d="M -489.91555 588.58704 L -454.39552 596.01312 L -403.86239 525.83535" />
    <path d="M 332.64232 679.81438 L 332.64232 531.70237" />
    <path d="M 332.64232 357.26294 L 332.64232 189.34605" />
    <path d="M 246.58915 742.56607 L 246.58915 651.2085" />
    <path d="M 246.58915 388.95896 L 246.58915 100.64797 L 279.34086 107.49528" />
    <path d="M 261.52 79.91279 L 246.58915 100.64797" />
    <path d="M 282.10919 749.99214 L 282.10919 601.88013" />
    <path d="M 282.10919 396.38503 L 282.10919 207.19264" />
    <path d="M 246.58915 742.56607 L 282.10919 749.99214 L 332.64232 679.81438" />
</svg>